<svg width="92" height="92" viewBox="0 0 92 92" fill="none" xmlns="http://www.w3.org/2000/svg">
<path d="M0 3.94286C0 2.89715 0.415435 1.89426 1.15492 1.15484C1.8944 0.415406 2.89735 0 3.94313 0H6.87682C11.8715 0 14.8682 3.35931 16.5769 6.48206C17.7178 8.56388 18.5432 10.9769 19.1899 13.1639C19.3648 13.1501 19.5402 13.1431 19.7157 13.1429H85.424C89.7878 13.1429 92.9423 17.317 91.7436 21.5175L82.1328 55.2105C81.2711 58.2326 79.4482 60.8917 76.9399 62.7851C74.4316 64.6785 71.3747 65.7031 68.232 65.7038H36.9603C33.7926 65.7039 30.7126 64.6638 28.1935 62.7433C25.6745 60.8228 23.856 58.1283 23.0174 55.0738L19.0217 40.501L12.3972 18.1687L12.392 18.1266C11.5718 15.1458 10.8042 12.3543 9.65805 10.2725C8.55923 8.24846 7.67596 7.88571 6.88208 7.88571H3.94313C2.89735 7.88571 1.8944 7.47031 1.15492 6.73088C0.415435 5.99145 0 4.98857 0 3.94286ZM34.1738 92C36.9626 92 39.6371 90.8923 41.6091 88.9204C43.581 86.9486 44.6888 84.2743 44.6888 81.4857C44.6888 78.6972 43.581 76.0228 41.6091 74.051C39.6371 72.0792 36.9626 70.9714 34.1738 70.9714C31.3851 70.9714 28.7105 72.0792 26.7386 74.051C24.7666 76.0228 23.6588 78.6972 23.6588 81.4857C23.6588 84.2743 24.7666 86.9486 26.7386 88.9204C28.7105 90.8923 31.3851 92 34.1738 92ZM70.9764 92C73.7651 92 76.4397 90.8923 78.4116 88.9204C80.3836 86.9486 81.4914 84.2743 81.4914 81.4857C81.4914 78.6972 80.3836 76.0228 78.4116 74.051C76.4397 72.0792 73.7651 70.9714 70.9764 70.9714C68.1876 70.9714 65.5131 72.0792 63.5411 74.051C61.5692 76.0228 60.4614 78.6972 60.4614 81.4857C60.4614 84.2743 61.5692 86.9486 63.5411 88.9204C65.5131 90.8923 68.1876 92 70.9764 92Z" fill="#79B285"/>
</svg>
