<svg width="20" height="16" viewBox="0 0 20 16" fill="none" xmlns="http://www.w3.org/2000/svg">
<path d="M19.531 4.875H17.1923L16.5423 3.25C15.8743 1.5793 14.2802 0.5 12.4806 0.5H7.51963C5.72041 0.5 4.12588 1.5793 3.45752 3.25L2.80752 4.875H0.469243C0.164165 4.875 -0.0596635 5.16172 0.0145552 5.45742L0.24893 6.39492C0.300883 6.60352 0.488383 6.75 0.703618 6.75H1.4876C0.962993 7.2082 0.625102 7.87422 0.625102 8.625V10.5C0.625102 11.1297 0.865727 11.698 1.2501 12.1379V14.25C1.2501 14.9402 1.80987 15.5 2.5001 15.5H3.7501C4.44034 15.5 5.0001 14.9402 5.0001 14.25V13H15.0001V14.25C15.0001 14.9402 15.5599 15.5 16.2501 15.5H17.5001C18.1903 15.5 18.7501 14.9402 18.7501 14.25V12.1379C19.1345 11.6984 19.3751 11.1301 19.3751 10.5V8.625C19.3751 7.87422 19.0372 7.2082 18.513 6.75H19.297C19.5122 6.75 19.6997 6.60352 19.7517 6.39492L19.986 5.45742C20.0599 5.16172 19.836 4.875 19.531 4.875ZM5.77862 4.17852C6.06338 3.4668 6.75284 3 7.51963 3H12.4806C13.2474 3 13.9368 3.4668 14.2216 4.17852L15.0001 6.125H5.0001L5.77862 4.17852ZM3.7501 10.4922C3.0001 10.4922 2.5001 9.99375 2.5001 9.24609C2.5001 8.49844 3.0001 8 3.7501 8C4.5001 8 5.6251 9.12148 5.6251 9.86914C5.6251 10.6168 4.5001 10.4922 3.7501 10.4922ZM16.2501 10.4922C15.5001 10.4922 14.3751 10.6168 14.3751 9.86914C14.3751 9.12148 15.5001 8 16.2501 8C17.0001 8 17.5001 8.49844 17.5001 9.24609C17.5001 9.99375 17.0001 10.4922 16.2501 10.4922Z" fill="#101010"/>
</svg>
