<svg width="28" height="28" viewBox="0 0 28 28" fill="none" xmlns="http://www.w3.org/2000/svg">
<path d="M14 2.625C7.71805 2.625 2.625 7.71805 2.625 14C2.625 20.2721 7.72844 25.375 14 25.375C20.2814 25.375 25.375 20.2814 25.375 14C25.375 7.72789 20.2721 2.625 14 2.625ZM19.9062 15.75H13.3438C13.2857 15.75 13.2301 15.727 13.1891 15.6859C13.148 15.6449 13.125 15.5893 13.125 15.5312V6.34375C13.125 6.28573 13.148 6.23009 13.1891 6.18907C13.2301 6.14805 13.2857 6.125 13.3438 6.125H14.6562C14.7143 6.125 14.7699 6.14805 14.8109 6.18907C14.852 6.23009 14.875 6.28573 14.875 6.34375V14H19.9062C19.9643 14 20.0199 14.023 20.0609 14.0641C20.102 14.1051 20.125 14.1607 20.125 14.2188V15.5312C20.125 15.5893 20.102 15.6449 20.0609 15.6859C20.0199 15.727 19.9643 15.75 19.9062 15.75Z" fill="#101010"/>
</svg>
