<svg width="28" height="28" viewBox="0 0 28 28" fill="none" xmlns="http://www.w3.org/2000/svg">
<path d="M14 17.5C15.933 17.5 17.5 15.933 17.5 14C17.5 12.067 15.933 10.5 14 10.5C12.067 10.5 10.5 12.067 10.5 14C10.5 15.933 12.067 17.5 14 17.5Z" fill="#101010"/>
<path d="M27.0726 13.7025C26.0435 11.0404 24.2569 8.73829 21.9336 7.08058C19.6103 5.42286 16.8522 4.48225 14.0001 4.375C11.1481 4.48225 8.38996 5.42286 6.06667 7.08058C3.74338 8.73829 1.95676 11.0404 0.927616 13.7025C0.858112 13.8947 0.858112 14.1053 0.927616 14.2975C1.95676 16.9596 3.74338 19.2617 6.06667 20.9194C8.38996 22.5771 11.1481 23.5177 14.0001 23.625C16.8522 23.5177 19.6103 22.5771 21.9336 20.9194C24.2569 19.2617 26.0435 16.9596 27.0726 14.2975C27.1421 14.1053 27.1421 13.8947 27.0726 13.7025ZM14.0001 19.6875C12.8752 19.6875 11.7756 19.3539 10.8403 18.729C9.90501 18.104 9.17602 17.2158 8.74555 16.1765C8.31508 15.1373 8.20245 13.9937 8.4219 12.8904C8.64135 11.7872 9.18303 10.7737 9.97845 9.97833C10.7739 9.18292 11.7873 8.64124 12.8905 8.42178C13.9938 8.20233 15.1374 8.31496 16.1766 8.74544C17.2159 9.17591 18.1041 9.90489 18.7291 10.8402C19.3541 11.7755 19.6876 12.8751 19.6876 14C19.6853 15.5077 19.0853 16.953 18.0192 18.0191C16.9531 19.0852 15.5078 19.6852 14.0001 19.6875Z" fill="#101010"/>
</svg>
