<svg xmlns="http://www.w3.org/2000/svg" version="1.1" xmlns:xlink="http://www.w3.org/1999/xlink" xmlns:svgjs="http://svgjs.com/svgjs" width="50" height="50" x="0" y="0" viewBox="0 0 8.467 8.467" style="enable-background:new 0 0 512 512" xml:space="preserve" class=""><g><path d="M.76 1.586a.265.265 0 0 0 .025.529h6.88a.265.265 0 0 0 0-.53H.786a.265.265 0 0 0-.026 0zm0 2.38a.265.265 0 0 0 .025.53h6.88a.265.265 0 1 0 0-.53H.786a.265.265 0 0 0-.026 0zm.025 2.381a.265.265 0 1 0 0 .53h6.88a.265.265 0 0 0 0-.53z" fill="#000000" opacity="1" data-original="#000000" class=""></path></g></svg>