<svg width="18" height="22" viewBox="0 0 18 22" fill="none" xmlns="http://www.w3.org/2000/svg">
<path d="M9.00001 21.4999C7.52644 20.243 6.16057 18.865 4.91668 17.3804C3.05001 15.1509 0.833345 11.8306 0.833345 8.66661C0.832535 7.05073 1.3111 5.47093 2.20849 4.12714C3.10587 2.78335 4.38173 1.73598 5.87459 1.11758C7.36745 0.499171 9.01022 0.337533 10.595 0.653118C12.1797 0.968703 13.6353 1.74733 14.7773 2.89044C15.5377 3.64745 16.1404 4.54774 16.5505 5.53921C16.9607 6.53069 17.1701 7.59366 17.1667 8.66661C17.1667 11.8306 14.95 15.1509 13.0833 17.3804C11.8394 18.865 10.4736 20.243 9.00001 21.4999ZM9.00001 5.16661C8.07175 5.16661 7.18151 5.53536 6.52514 6.19174C5.86876 6.84812 5.50001 7.73835 5.50001 8.66661C5.50001 9.59487 5.86876 10.4851 6.52514 11.1415C7.18151 11.7979 8.07175 12.1666 9.00001 12.1666C9.92827 12.1666 10.8185 11.7979 11.4749 11.1415C12.1313 10.4851 12.5 9.59487 12.5 8.66661C12.5 7.73835 12.1313 6.84812 11.4749 6.19174C10.8185 5.53536 9.92827 5.16661 9.00001 5.16661Z" fill="#101010"/>
</svg>
