<svg width="24" height="24" viewBox="0 0 24 24" fill="none" xmlns="http://www.w3.org/2000/svg">
<path d="M15.7888 16.795L17.7488 14.835C18.0128 14.5743 18.3468 14.3958 18.7103 14.3213C19.0737 14.2467 19.451 14.2793 19.7963 14.415L22.1851 15.3688C22.534 15.5104 22.8332 15.7522 23.045 16.0636C23.2568 16.375 23.3716 16.7422 23.3751 17.1188V21.4938C23.373 21.7499 23.3192 22.0031 23.2167 22.2379C23.1143 22.4727 22.9654 22.6844 22.779 22.8601C22.5926 23.0359 22.3726 23.1721 22.1322 23.2606C21.8918 23.3491 21.6359 23.388 21.3801 23.375C4.64131 22.3338 1.26381 8.15875 0.625056 2.73376C0.595405 2.46735 0.622496 2.19768 0.704548 1.9425C0.7866 1.68732 0.921753 1.4524 1.10111 1.2532C1.28048 1.054 1.49998 0.895034 1.74519 0.786761C1.9904 0.678488 2.25576 0.62336 2.52381 0.625005H6.75006C7.12719 0.626122 7.49536 0.740039 7.80723 0.952106C8.11909 1.16417 8.36038 1.46469 8.50006 1.81501L9.45381 4.20376C9.59403 4.54769 9.6298 4.92532 9.55666 5.28947C9.48352 5.65361 9.30471 5.98814 9.04256 6.25126L7.08256 8.21126C7.08256 8.21126 8.21131 15.85 15.7888 16.795Z" fill="white"/>
</svg>
