<svg width="42" height="42" viewBox="0 0 42 42" fill="none" xmlns="http://www.w3.org/2000/svg">
<path d="M27.4024 0.166626H14.6191C2.94408 0.166626 0.166992 2.94371 0.166992 14.5979V27.3812C0.166992 39.0541 2.92324 41.8333 14.5982 41.8333H27.3816C39.0545 41.8333 41.8337 39.077 41.8337 27.402V14.6187C41.8337 2.94371 39.0774 0.166626 27.4024 0.166626ZM33.8045 29.8958H30.7649C29.6149 29.8958 29.2691 28.9645 27.2066 26.902C25.4066 25.1666 24.6462 24.95 24.1899 24.95C23.5607 24.95 23.3878 25.1229 23.3878 25.9916V28.725C23.3878 29.4645 23.1482 29.8979 21.217 29.8979C19.3427 29.7719 17.5252 29.2025 15.9141 28.2365C14.303 27.2705 12.9444 25.9355 11.9503 24.3416C9.59026 21.4041 7.94812 17.9565 7.15449 14.2729C7.15449 13.8166 7.32741 13.4041 8.19616 13.4041H11.2337C12.0149 13.4041 12.2962 13.752 12.6024 14.5541C14.0774 18.8958 16.5941 22.6708 17.6149 22.6708C18.0066 22.6708 18.1774 22.4979 18.1774 21.5208V17.05C18.0482 15.0104 16.9649 14.8375 16.9649 14.1C16.9788 13.9054 17.068 13.724 17.2134 13.5941C17.3589 13.4642 17.5492 13.396 17.7441 13.4041H22.5191C23.1712 13.4041 23.3878 13.7291 23.3878 14.5104V20.5437C23.3878 21.1958 23.6691 21.4125 23.8649 21.4125C24.2566 21.4125 24.5587 21.1958 25.2753 20.4791C26.8146 18.6019 28.0723 16.5105 29.0087 14.2708C29.1044 14.0018 29.2855 13.7714 29.5243 13.6149C29.7632 13.4585 30.0467 13.3844 30.3316 13.4041H33.3712C34.2816 13.4041 34.4753 13.8604 34.2816 14.5104C33.1763 16.9863 31.8088 19.3365 30.2024 21.5208C29.8753 22.0208 29.7441 22.2812 30.2024 22.8666C30.5045 23.3229 31.5691 24.2125 32.2857 25.0583C33.3272 26.0971 34.1921 27.2991 34.8462 28.6166C35.1066 29.4625 34.6712 29.8958 33.8045 29.8958Z" fill="#1976D2"/>
</svg>
