<svg width="16" height="18" viewBox="0 0 16 18" fill="none" xmlns="http://www.w3.org/2000/svg">
<path d="M4.3225 0.891754C4.4125 0.850088 4.50417 0.810088 4.5975 0.771754L4.885 0.659254C6.25417 0.153421 8.06167 -0.0724122 11.1183 0.691754C12.4842 1.03342 13.51 2.09509 14.175 3.29175C15.01 4.79509 15.5 6.81509 15.5 9.00009C15.5 11.1859 15.01 13.2051 14.175 14.7084C13.5092 15.9051 12.4833 16.9668 11.1183 17.3084C8.06167 18.0726 6.25417 17.8468 4.885 17.3418L4.59833 17.2284C4.50601 17.1902 4.41433 17.1505 4.32333 17.1093C3.15917 16.5818 2.20833 15.4643 1.555 14.0776C0.894166 12.6751 0.5 10.9243 0.5 9.00009C0.5 7.07592 0.894166 5.32509 1.555 3.92259C2.20833 2.53592 3.15833 1.41842 4.3225 0.891754ZM10.5 2.33342C9.78917 2.33342 8.97083 2.86175 8.2825 4.10175C7.60833 5.31342 7.16667 7.04342 7.16667 9.00009C7.16667 10.9568 7.60833 12.6868 8.2825 13.8984C8.97083 15.1384 9.78917 15.6668 10.5 15.6668C11.2108 15.6668 12.0292 15.1384 12.7175 13.8984C13.3917 12.6868 13.8333 10.9568 13.8333 9.00009C13.8333 7.04342 13.3917 5.31342 12.7175 4.10175C12.0292 2.86175 11.2108 2.33342 10.5 2.33342ZM10.5 6.08342C11.0883 6.08342 11.5083 6.54925 11.7567 7.04592C12.0175 7.56759 12.1667 8.25925 12.1667 9.00009C12.1667 9.74175 12.0167 10.4326 11.7567 10.9543C11.5083 11.4509 11.0883 11.9168 10.5 11.9168C9.91167 11.9168 9.49167 11.4509 9.24333 10.9543C8.98333 10.4326 8.83333 9.74092 8.83333 9.00009C8.83333 8.25842 8.98333 7.56759 9.24333 7.04592C9.49167 6.55009 9.91167 6.08342 10.5 6.08342Z" fill="#101010"/>
</svg>
