<svg width="145" height="45" viewBox="0 0 145 45" fill="none" xmlns="http://www.w3.org/2000/svg">
<g clip-path="url(#clip0_47_5195)">
<path d="M97.7643 11.1407C96.4707 10.2664 94.9941 10.2664 93.5176 10.2531C82.3195 10.1339 71.226 8.90194 60.1586 7.3123C53.8736 6.41151 48.2811 3.48393 42.5971 0.861024C38.9515 -0.821343 37.3704 -0.106006 36.2206 3.77536C35.8025 5.17954 35.0577 6.14657 33.7118 6.64996C32.4705 7.1136 31.2553 7.66997 29.9748 7.9879C24.8265 9.28611 20.5407 12.0415 16.8298 15.7771C15.6799 16.9296 14.3079 17.9894 14.8044 19.9102C15.301 21.8177 17.0127 22.1224 18.5546 22.5861C19.1033 22.745 19.6652 22.8245 20.3447 23.3412C16.6599 24.9043 12.9621 26.4145 9.3034 28.0306C6.46795 29.2758 3.60637 30.4813 1.37198 32.7598C-0.535741 34.7203 -0.457342 36.257 1.63331 37.9923C2.43038 38.6547 3.34504 39.2243 3.58024 40.3238C4.2597 43.3706 6.59862 44.5893 9.22501 44.841C15.9935 45.5166 22.5268 44.0064 28.9033 41.8604C29.622 41.622 30.7326 41.2643 30.602 40.3635C30.4582 39.3303 29.243 39.37 28.4198 39.264C24.4607 38.7209 20.6975 40.0456 16.8559 40.6285C15.1703 40.8802 13.4978 41.0126 11.8122 41.0391C9.4602 41.0789 7.35648 40.7477 6.74235 37.9128C6.70315 37.7141 6.52022 37.5287 6.40262 37.3432C4.4557 34.5878 4.40343 34.4819 7.63088 33.0247C12.5962 30.786 17.6399 28.7194 22.6444 26.5734C23.8727 26.0435 24.9964 25.3414 25.8196 24.2419C27.2961 22.2417 26.7473 20.2546 24.3561 19.5658C22.9057 19.1551 21.3377 19.1021 19.3777 18.8239C21.5599 16.2805 23.8335 14.4259 26.6428 13.3397C28.7073 12.5449 30.8633 12.0415 32.9539 11.3261C36.0246 10.2664 38.8339 8.8622 39.6571 5.24578C39.8662 4.33173 40.4934 4.09329 41.3427 4.53044C41.604 4.66291 41.8784 4.78213 42.1267 4.92785C52.0573 10.8095 63.1247 12.3197 74.2966 13.4192C80.451 14.0153 86.6054 14.3994 92.7989 14.2935C94.5107 14.267 96.1701 14.0683 97.7512 13.3794V11.1539L97.7643 11.1407Z" fill="#79B285"/>
<path d="M35.0577 35.3032V18.1748H43.8907V21.3541H38.2721V24.6393H38.9777C40.4019 24.6393 41.5648 24.7983 42.4664 25.1162C43.368 25.4341 44.1259 26.0303 44.727 26.9178C45.328 27.8054 45.6286 28.8386 45.6286 30.0441C45.6286 31.2496 45.4064 32.1901 44.9491 32.9054C44.4918 33.6208 43.8776 34.1904 43.0806 34.6408C42.2835 35.0912 41.1859 35.3032 39.7878 35.3032H35.0577ZM38.2721 27.5537V32.2034H39.0822C40.5456 32.2034 41.4864 32.0047 41.8784 31.6205C42.2704 31.2363 42.4664 30.7064 42.4664 30.0441C42.4664 28.3882 41.2904 27.5537 38.9515 27.5537H38.2851H38.2721Z" fill="#101010"/>
<path d="M57.3231 22.6391H60.4591V35.3032H57.3231V33.9653C56.709 34.5614 56.0949 34.9853 55.4807 35.237C54.8666 35.5019 54.2002 35.6211 53.4816 35.6211C51.8744 35.6211 50.4762 34.9853 49.3002 33.7136C48.1242 32.4419 47.5363 30.8655 47.5363 28.9844C47.5363 27.1033 48.1112 25.421 49.248 24.1757C50.3848 22.9305 51.7698 22.2947 53.4032 22.2947C54.1479 22.2947 54.8535 22.4404 55.5199 22.7318C56.1733 23.0233 56.7874 23.4472 57.3493 24.03V22.6391H57.3231ZM54.0303 25.2488C53.0634 25.2488 52.2533 25.5932 51.613 26.2953C50.9728 26.9974 50.6461 27.8849 50.6461 28.9712C50.6461 30.0574 50.9728 30.9715 51.6261 31.6735C52.2794 32.3756 53.0765 32.7333 54.0303 32.7333C54.9842 32.7333 55.8335 32.3889 56.4738 31.6868C57.1141 30.9847 57.4407 30.0839 57.4407 28.9579C57.4407 27.8319 57.1141 26.9576 56.4738 26.282C55.8335 25.6064 55.0103 25.262 54.0173 25.262L54.0303 25.2488Z" fill="#101010"/>
<path d="M66.7442 22.6391V24.03C67.3061 23.4604 67.9202 23.0233 68.5866 22.7318C69.253 22.4404 69.9455 22.2947 70.7034 22.2947C72.3367 22.2947 73.7217 22.9173 74.8585 24.1757C75.9953 25.421 76.5703 27.0238 76.5703 28.9844C76.5703 30.945 75.9823 32.4419 74.8063 33.7136C73.6303 34.9853 72.2322 35.6211 70.6119 35.6211C69.8932 35.6211 69.2268 35.4887 68.5996 35.237C67.9855 34.972 67.3583 34.5481 66.7442 33.9653V39.9397H63.6343V22.6391H66.7442ZM70.037 25.2488C69.0439 25.2488 68.2338 25.5932 67.5805 26.2688C66.9271 26.9444 66.6005 27.8452 66.6005 28.9447C66.6005 30.0442 66.9271 30.9847 67.5805 31.6735C68.2338 32.3624 69.0439 32.7201 70.037 32.7201C71.03 32.7201 71.801 32.3624 72.4543 31.6603C73.1076 30.9582 73.4343 30.0574 73.4343 28.9579C73.4343 27.8584 73.1076 26.9841 72.4674 26.282C71.8271 25.5799 71.017 25.2355 70.037 25.2355V25.2488Z" fill="#101010"/>
<path d="M91.3877 25.1958L88.7744 26.6529C88.2779 26.1363 87.7944 25.7654 87.324 25.5667C86.8406 25.368 86.2787 25.262 85.6384 25.262C84.4624 25.262 83.5216 25.6197 82.7899 26.3218C82.0713 27.0371 81.7054 27.9379 81.7054 29.0506C81.7054 30.1634 82.0582 31.0112 82.7507 31.6868C83.4432 32.3624 84.3579 32.7068 85.4947 32.7068C86.8928 32.7068 87.9904 32.2167 88.7744 31.2496L91.244 32.9717C89.8981 34.7336 88.0166 35.6211 85.5731 35.6211C83.3779 35.6211 81.6531 34.9588 80.4118 33.6473C79.1705 32.3226 78.5433 30.786 78.5433 29.0109C78.5433 27.7789 78.8438 26.6529 79.4449 25.6197C80.0459 24.5864 80.8953 23.7783 81.9798 23.1822C83.0643 22.5861 84.2795 22.2947 85.6123 22.2947C86.8536 22.2947 87.9643 22.5464 88.9574 23.0498C89.9504 23.5531 90.7475 24.2685 91.3747 25.1825L91.3877 25.1958Z" fill="#101010"/>
<path d="M100.09 22.3079C101.266 22.3079 102.377 22.6126 103.409 23.2087C104.441 23.8048 105.251 24.6129 105.839 25.6462C106.427 26.6794 106.715 27.7789 106.715 28.9579C106.715 30.1369 106.427 31.2761 105.839 32.3094C105.251 33.3559 104.454 34.164 103.448 34.7468C102.442 35.3297 101.318 35.6211 100.103 35.6211C98.313 35.6211 96.7842 34.972 95.5168 33.6871C94.2493 32.3889 93.6221 30.8257 93.6221 28.9712C93.6221 26.9974 94.3408 25.3415 95.7651 24.0168C97.0194 22.8643 98.4698 22.2947 100.09 22.2947V22.3079ZM100.142 25.3017C99.1624 25.3017 98.3522 25.6462 97.712 26.335C97.0717 27.0238 96.745 27.8982 96.745 28.9712C96.745 30.0442 97.0717 30.9714 97.712 31.647C98.3522 32.3226 99.1624 32.6671 100.142 32.6671C101.122 32.6671 101.946 32.3226 102.599 31.6338C103.252 30.945 103.579 30.0574 103.579 28.9712C103.579 27.8849 103.252 26.9974 102.612 26.3218C101.972 25.6462 101.148 25.3017 100.155 25.3017H100.142Z" fill="#101010"/>
<path d="M109.276 35.3033V22.6392H114.294C115.94 22.6392 117.064 22.9703 117.652 23.6194C118.24 24.2685 118.54 25.0236 118.54 25.8449C118.54 27.0769 117.939 27.9644 116.724 28.5076C118.383 29.0772 119.207 30.1634 119.207 31.7531C119.207 32.6141 118.984 33.3295 118.553 33.8858C118.122 34.4555 117.56 34.8264 116.894 35.0118C116.227 35.1973 115.287 35.29 114.084 35.29H109.289L109.276 35.3033ZM112.412 27.62H113.627C114.137 27.62 114.542 27.4876 114.816 27.2359C115.091 26.9842 115.234 26.6927 115.234 26.3748C115.234 25.8979 115.104 25.527 114.829 25.2753C114.555 25.0236 114.241 24.8779 113.875 24.8779H113.47H112.412V27.62ZM112.412 32.8658H113.993C114.607 32.8658 115.038 32.7201 115.287 32.4287C115.535 32.1372 115.666 31.8458 115.666 31.5676C115.666 31.157 115.522 30.7861 115.247 30.4416C114.973 30.0972 114.463 29.925 113.732 29.925H112.412V32.8526V32.8658Z" fill="#101010"/>
<path d="M127.726 22.3079C128.902 22.3079 130.013 22.6126 131.045 23.2087C132.077 23.8048 132.887 24.6129 133.475 25.6462C134.063 26.6794 134.351 27.7789 134.351 28.9579C134.351 30.1369 134.063 31.2761 133.475 32.3094C132.887 33.3559 132.09 34.164 131.084 34.7468C130.078 35.3297 128.954 35.6211 127.739 35.6211C125.949 35.6211 124.42 34.972 123.153 33.6871C121.885 32.3889 121.258 30.8257 121.258 28.9712C121.258 26.9974 121.977 25.3415 123.401 24.0168C124.655 22.8643 126.106 22.2947 127.726 22.2947V22.3079ZM127.778 25.3017C126.798 25.3017 125.988 25.6462 125.348 26.335C124.708 27.0238 124.381 27.8982 124.381 28.9712C124.381 30.0442 124.708 30.9714 125.348 31.647C125.988 32.3226 126.798 32.6671 127.778 32.6671C128.758 32.6671 129.581 32.3226 130.235 31.6338C130.888 30.945 131.215 30.0574 131.215 28.9712C131.215 27.8849 130.888 26.9974 130.248 26.3218C129.608 25.6462 128.784 25.3017 127.791 25.3017H127.778Z" fill="#101010"/>
<path d="M139.002 29.9381V27.6729H139.617C140.035 27.6729 140.401 27.5669 140.714 27.3682C141.028 27.1695 141.185 26.8383 141.185 26.3879C141.185 26.0038 141.041 25.6858 140.766 25.4209C140.492 25.156 140.139 25.0367 139.734 25.0367C139.225 25.0367 138.571 25.2884 137.8 25.7918L136.559 23.6061C137.644 22.7318 138.846 22.3079 140.165 22.3079C141.381 22.3079 142.387 22.6258 143.197 23.2749C144.007 23.924 144.399 24.785 144.399 25.8713C144.399 26.9576 143.811 27.8716 142.648 28.5472C144.203 29.1301 144.974 30.1766 144.974 31.7C144.974 32.8392 144.543 33.7665 143.667 34.5216C142.792 35.2634 141.59 35.6343 140.048 35.6343C138.349 35.6343 136.951 35.1574 135.853 34.1904L137.591 31.9782C138.336 32.5345 139.042 32.8127 139.708 32.8127C140.244 32.8127 140.675 32.6802 140.989 32.4286C141.302 32.1636 141.459 31.8324 141.459 31.4218C141.459 31.0111 141.315 30.68 141.015 30.3885C140.714 30.0971 140.322 29.9514 139.8 29.9514H138.989L139.002 29.9381Z" fill="#101010"/>
</g>
<defs>
<clipPath id="clip0_47_5195">
<rect width="145" height="45" fill="white"/>
</clipPath>
</defs>
</svg>
