<?xml version="1.0" encoding="utf-8"?><svg viewBox="0 0 50 50" xmlns="http://www.w3.org/2000/svg" xmlns:xlink="http://www.w3.org/1999/xlink"><style>:root>svg{display:none}:root>svg:target{display:block}</style><svg viewBox="0 0 18 18" id="add" xmlns="http://www.w3.org/2000/svg"><path d="M9 0a9.11 9.11 0 00-9 9 9.11 9.11 0 009 9 9.11 9.11 0 009-9 9.11 9.11 0 00-9-9zm5.143 9.643h-4.5v4.5H8.357v-4.5h-4.5V8.357h4.5v-4.5h1.286v4.5h4.5v1.286z"/></svg><svg viewBox="0 0 17 17" id="arrow-green" xmlns="http://www.w3.org/2000/svg"><path d="M8.917 16.265A7.96 7.96 0 01.966 8.314v-.16a7.951 7.951 0 117.95 8.11zm0-14.312a6.361 6.361 0 106.361 6.36 6.368 6.368 0 00-6.361-6.36zM7.764 12.289L6.64 11.164l2.81-2.81-2.81-2.811 1.124-1.126L11.7 8.353 7.765 12.29h-.001z"/></svg><svg viewBox="0 0 11 7" id="arrow-grey" xmlns="http://www.w3.org/2000/svg"><path d="M1 1l4.5 4L10 1"/></svg><svg viewBox="0 0 22 29" id="bell" xmlns="http://www.w3.org/2000/svg"><path d="M11.002 28.279a2.91 2.91 0 002.9-2.9h-5.8a2.9 2.9 0 002.9 2.9zm8.7-8.701v-7.251c0-4.452-2.377-8.18-6.525-9.166v-.986A2.172 2.172 0 0011.002 0a2.172 2.172 0 00-2.175 2.175v.986C4.665 4.148 2.3 7.86 2.3 12.327v7.25L.43 21.448c-.914.914-.276 2.48 1.015 2.48h19.099c1.29 0 1.943-1.566 1.03-2.48l-1.871-1.87z"/></svg><svg viewBox="0 0 20 22" id="burger" xmlns="http://www.w3.org/2000/svg"><path fill-rule="evenodd" clip-rule="evenodd" d="M1.29 1.29C0 2.576 0 4.651 0 8.8v4.4c0 4.148 0 6.223 1.29 7.51C2.576 22 4.651 22 8.8 22H11c4.148 0 6.223 0 7.51-1.29 1.29-1.287 1.29-3.362 1.29-7.51V8.8c0-4.148 0-6.223-1.29-7.51C17.224 0 15.149 0 11 0H8.8C4.652 0 2.577 0 1.29 1.29zM5.5 7.974a.825.825 0 100 1.65h8.8a.825.825 0 000-1.65H5.5zm0 4.4a.825.825 0 100 1.65H11a.825.825 0 000-1.65H5.5z"/></svg><svg viewBox="0 0 20 16" id="car" xmlns="http://www.w3.org/2000/svg"><path d="M19.531 4.875h-2.339l-.65-1.625A4.353 4.353 0 0012.481.5H7.52c-1.8 0-3.394 1.08-4.062 2.75l-.65 1.625H.469a.469.469 0 00-.454.582l.234.938c.052.209.24.355.455.355h.784a2.483 2.483 0 00-.863 1.875V10.5c0 .63.24 1.198.625 1.638v2.112c0 .69.56 1.25 1.25 1.25h1.25c.69 0 1.25-.56 1.25-1.25V13h10v1.25c0 .69.56 1.25 1.25 1.25h1.25c.69 0 1.25-.56 1.25-1.25v-2.112c.384-.44.625-1.008.625-1.638V8.625c0-.75-.338-1.417-.862-1.875h.784a.469.469 0 00.455-.355l.234-.938a.469.469 0 00-.455-.582zM5.779 4.179A1.875 1.875 0 017.519 3h4.962c.766 0 1.456.467 1.74 1.179l.78 1.946H5l.778-1.946zM3.75 10.492c-.75 0-1.25-.498-1.25-1.246S3 8 3.75 8s1.875 1.121 1.875 1.87c0 .747-1.125.622-1.875.622zm12.5 0c-.75 0-1.875.125-1.875-.623S15.5 8 16.25 8s1.25.498 1.25 1.246-.5 1.246-1.25 1.246z"/></svg><svg viewBox="0 0 22 22" id="chat" xmlns="http://www.w3.org/2000/svg"><path d="M19.8 0H2.2C.987 0 0 .983 0 2.191V15.41c0 1.207.987 2.19 2.2 2.19h3.3V22l6.986-4.4H19.8c1.213 0 2.2-.983 2.2-2.191V2.19A2.198 2.198 0 0019.8 0z"/></svg><svg viewBox="0 0 14 13" id="check" xmlns="http://www.w3.org/2000/svg"><path d="M11.796.868l1.608 1.128-6.972 10.056H4.824L.936 6.604l1.608-1.5 3.084 2.88L11.796.868z"/></svg><svg viewBox="0 0 28 28" id="clock" xmlns="http://www.w3.org/2000/svg"><path d="M14 2.625C7.718 2.625 2.625 7.718 2.625 14c0 6.272 5.103 11.375 11.375 11.375 6.281 0 11.375-5.094 11.375-11.375 0-6.272-5.103-11.375-11.375-11.375zm5.906 13.125h-6.562a.218.218 0 01-.219-.219V6.344a.218.218 0 01.219-.219h1.312a.219.219 0 01.219.219V14h5.031a.218.218 0 01.219.219v1.312a.218.218 0 01-.219.219z"/></svg><svg viewBox="0 0 14 14" id="close" xmlns="http://www.w3.org/2000/svg"><path d="M1.4 14L0 12.6 5.6 7 0 1.4 1.4 0 7 5.6 12.6 0 14 1.4 8.4 7l5.6 5.6-1.4 1.4L7 8.4 1.4 14z"/></svg><svg viewBox="0 0 14 18" id="doc" xmlns="http://www.w3.org/2000/svg"><path d="M7.833 6.5V1.917L12.417 6.5M2 .667A1.66 1.66 0 00.333 2.333v13.334A1.667 1.667 0 002 17.333h10a1.667 1.667 0 001.667-1.666v-10l-5-5H2z"/></svg><svg viewBox="0 0 28 28" id="eye" xmlns="http://www.w3.org/2000/svg"><path d="M14 17.5a3.5 3.5 0 100-7 3.5 3.5 0 000 7z"/><path d="M27.073 13.703A14.603 14.603 0 0014 4.375 14.604 14.604 0 00.928 13.703a.875.875 0 000 .595A14.603 14.603 0 0014 23.624a14.604 14.604 0 0013.073-9.328.875.875 0 000-.595zM14 19.688A5.688 5.688 0 1119.688 14 5.696 5.696 0 0114 19.688z"/></svg><svg viewBox="0 0 8.467 8.467" id="filter-btn" xmlns="http://www.w3.org/2000/svg"><path d="M.76 1.586a.265.265 0 00.025.529h6.88a.265.265 0 000-.53H.786a.265.265 0 00-.026 0zm0 2.38a.265.265 0 00.025.53h6.88a.265.265 0 100-.53H.786a.265.265 0 00-.026 0zm.025 2.381a.265.265 0 100 .53h6.88a.265.265 0 000-.53z" data-original="#000000"/></svg><svg viewBox="0 0 18 22" id="geo" xmlns="http://www.w3.org/2000/svg"><path d="M9 21.5a34.736 34.736 0 01-4.083-4.12C3.05 15.15.833 11.83.833 8.667A8.167 8.167 0 0114.777 2.89a8.114 8.114 0 012.39 5.777c0 3.164-2.217 6.484-4.084 8.713A34.735 34.735 0 019 21.5zM9 5.167a3.5 3.5 0 100 7 3.5 3.5 0 000-7z"/></svg><svg viewBox="0 0 24 22" id="heart" xmlns="http://www.w3.org/2000/svg"><path d="M11.99 22l-1.74-1.583C4.077 14.818 0 11.114 0 6.594 0 2.889 2.901 0 6.594 0c2.086 0 4.088.971 5.395 2.494C13.296.97 15.3 0 17.384 0c3.693 0 6.594 2.89 6.594 6.594 0 4.52-4.076 8.224-10.25 13.823L11.988 22z"/></svg><svg viewBox="0 0 30 28" id="heart-stroke" xmlns="http://www.w3.org/2000/svg"><path d="M13.196 24.548l-.001-.002c-3.792-3.438-6.858-6.224-8.988-8.83C2.088 13.124 1 10.832 1 8.4c0-3.973 3.096-7.056 7.056-7.056 2.246 0 4.418 1.05 5.832 2.698l.759.884.758-.884c1.414-1.647 3.586-2.698 5.833-2.698 3.96 0 7.055 3.083 7.055 7.055 0 2.433-1.088 4.725-3.207 7.317-2.13 2.606-5.196 5.392-8.987 8.83l-.002.002-1.45 1.32-1.45-1.32z"/></svg><svg viewBox="0 0 24 20" id="mail" xmlns="http://www.w3.org/2000/svg"><path d="M20.167.667H3.833a3.5 3.5 0 00-3.5 3.5v11.666a3.5 3.5 0 003.5 3.5h16.334a3.5 3.5 0 003.5-3.5V4.167a3.5 3.5 0 00-3.5-3.5zm0 2.333l-7.584 5.215a1.167 1.167 0 01-1.166 0L3.833 3h16.334z"/></svg><svg viewBox="0 0 24 24" id="phone" xmlns="http://www.w3.org/2000/svg"><path d="M15.789 16.795l1.96-1.96a1.916 1.916 0 012.047-.42l2.39.954a1.908 1.908 0 011.19 1.75v4.375a1.899 1.899 0 01-1.996 1.881C4.641 22.334 1.264 8.159.625 2.734A1.899 1.899 0 012.524.625H6.75a1.89 1.89 0 011.75 1.19l.954 2.389a1.89 1.89 0 01-.411 2.047l-1.96 1.96s1.128 7.639 8.706 8.584z"/></svg><svg viewBox="0 0 16 16" id="search-white" xmlns="http://www.w3.org/2000/svg"><path d="M15.755 14.394l-3.627-3.627a6.7 6.7 0 001.343-4.032A6.743 6.743 0 006.735 0 6.743 6.743 0 000 6.735a6.743 6.743 0 006.735 6.736 6.7 6.7 0 004.032-1.343l3.627 3.627a.964.964 0 001.36-1.361zM1.925 6.735a4.811 4.811 0 119.621 0 4.811 4.811 0 01-9.622 0z"/></svg><svg viewBox="0 0 22 17" id="sign-out" xmlns="http://www.w3.org/2000/svg"><path d="M21.705 8.977l-7.337 7.216c-.655.644-1.79.215-1.79-.73v-4.124h-5.94c-.611 0-1.048-.43-1.048-1.03V6.185c0-.558.437-1.03 1.048-1.03h5.94V1.03c0-.902 1.091-1.375 1.79-.73l7.337 7.216c.393.43.393 1.073 0 1.46zm-13.32 7.001c0 .3-.262.516-.524.516H4.193C1.878 16.494 0 14.647 0 12.37V4.123C0 1.847 1.878 0 4.193 0H7.86c.262 0 .524.258.524.515v1.718a.527.527 0 01-.524.516H4.193c-.787 0-1.398.644-1.398 1.374v8.247c0 .773.611 1.375 1.398 1.375H7.86c.262 0 .524.257.524.515v1.718z"/></svg><svg viewBox="0 0 15 14" id="star" xmlns="http://www.w3.org/2000/svg"><path d="M7.5 1.13l1.756 3.557.116.236.26.038 3.926.57-2.84 2.77-.189.183.045.26.67 3.91-3.511-1.847-.233-.122-.233.122-3.511 1.847.67-3.91.045-.26-.188-.183-2.841-2.77 3.926-.57.26-.038.116-.236L7.5 1.13z"/></svg><svg viewBox="0 0 15 14" id="star-stroke" xmlns="http://www.w3.org/2000/svg"><path d="M7.5 1.13l1.756 3.557.116.236.26.038 3.926.57-2.84 2.77-.189.183.045.26.67 3.91-3.511-1.847-.233-.122-.233.122-3.511 1.847.67-3.91.045-.26-.188-.183-2.841-2.77 3.926-.57.26-.038.116-.236L7.5 1.13z"/></svg><svg viewBox="0 0 14 18" id="trash" xmlns="http://www.w3.org/2000/svg"><path d="M14 1h-3.5l-1-1h-5l-1 1H0v2h14M1 16a2 2 0 002 2h8a2 2 0 002-2V4H1v12z"/></svg><svg viewBox="0 0 20 18" id="truck" xmlns="http://www.w3.org/2000/svg"><path fill-rule="evenodd" clip-rule="evenodd" d="M1.667.667a.833.833 0 00-.834.833v11.667c0 1.128.748 2.081 1.774 2.393a2.5 2.5 0 004.75.107h5.285a2.5 2.5 0 004.75-.107 2.5 2.5 0 001.775-2.393V9.833A4.167 4.167 0 0015 5.667h-3.333V1.5a.833.833 0 00-.834-.833H1.667zM12.642 14h-.975V7.333H15a2.5 2.5 0 012.5 2.5v3.334a.831.831 0 01-.244.589 2.5 2.5 0 00-4.614.244zm-8.231.244a.835.835 0 011.37.264.834.834 0 11-1.37-.264zm9.756.59a.833.833 0 111.666 0 .833.833 0 01-1.666 0z"/></svg><svg viewBox="0 0 22 22" id="user" xmlns="http://www.w3.org/2000/svg"><path d="M11 0a5.5 5.5 0 110 11 5.5 5.5 0 010-11zm0 13.75c6.078 0 11 2.461 11 5.5V22H0v-2.75c0-3.039 4.923-5.5 11-5.5z"/></svg><svg viewBox="0 0 16 18" id="wheel" xmlns="http://www.w3.org/2000/svg"><path d="M4.322.892c.09-.042.182-.082.276-.12l.287-.113c1.37-.506 3.177-.731 6.233.033 1.366.341 2.392 1.403 3.057 2.6C15.01 4.795 15.5 6.815 15.5 9c0 2.186-.49 4.205-1.325 5.708-.666 1.197-1.692 2.259-3.057 2.6-3.056.765-4.864.539-6.233.034l-.287-.114a9.135 9.135 0 01-.275-.119c-1.164-.527-2.115-1.645-2.768-3.031C.895 12.675.5 10.924.5 9c0-1.924.394-3.675 1.055-5.077.653-1.387 1.603-2.505 2.768-3.031zM10.5 2.333c-.71 0-1.53.529-2.217 1.769C7.608 5.313 7.167 7.043 7.167 9c0 1.957.441 3.687 1.116 4.898.688 1.24 1.506 1.769 2.217 1.769.71 0 1.53-.529 2.217-1.769.675-1.211 1.116-2.941 1.116-4.898 0-1.957-.441-3.687-1.116-4.898-.688-1.24-1.506-1.769-2.217-1.769zm0 3.75c.588 0 1.008.466 1.257.963.26.522.41 1.213.41 1.954 0 .742-.15 1.433-.41 1.954-.249.497-.669.963-1.257.963-.588 0-1.008-.466-1.257-.963-.26-.521-.41-1.213-.41-1.954 0-.742.15-1.432.41-1.954.249-.496.669-.963 1.257-.963z"/></svg><svg viewBox="0 0 22 22" id="world" xmlns="http://www.w3.org/2000/svg"><path d="M11 22c-1.503 0-2.924-.289-4.263-.867a11.177 11.177 0 01-3.506-2.365 11.164 11.164 0 01-2.365-3.506A10.624 10.624 0 010 11c0-1.522.289-2.947.867-4.277a11.192 11.192 0 012.365-3.491c.999-1 2.167-1.788 3.504-2.365A10.66 10.66 0 0111 0c1.522 0 2.947.289 4.277.867a11.193 11.193 0 013.491 2.365 11.18 11.18 0 012.365 3.492A10.63 10.63 0 0122 11c0 1.503-.289 2.924-.867 4.262a11.177 11.177 0 01-2.365 3.507 11.206 11.206 0 01-3.492 2.365c-1.33.578-2.755.867-4.276.866zm0-2.255c.477-.66.89-1.348 1.238-2.063a13 13 0 00.852-2.282H8.91c.22.807.504 1.568.852 2.283.349.715.761 1.402 1.238 2.062zm-2.86-.44a15.285 15.285 0 01-.867-1.884 16.018 16.018 0 01-.618-2.021H3.41a9.122 9.122 0 001.994 2.393 7.923 7.923 0 002.736 1.512zm5.72 0a7.921 7.921 0 002.737-1.512A9.102 9.102 0 0018.59 15.4h-3.245a16.29 16.29 0 01-.618 2.022 15.01 15.01 0 01-.867 1.883zM2.475 13.2h3.74A14.001 14.001 0 016.05 11a14.315 14.315 0 01.165-2.2h-3.74a9.49 9.49 0 00-.207 1.087A8.564 8.564 0 002.2 11c0 .385.023.756.07 1.113.046.357.114.72.205 1.087zm5.94 0h5.17a14.001 14.001 0 00.165-2.2 14.3 14.3 0 00-.165-2.2h-5.17A14.001 14.001 0 008.25 11a14.315 14.315 0 00.165 2.2zm7.37 0h3.74c.092-.367.16-.729.207-1.087.046-.358.069-.729.068-1.113 0-.385-.023-.756-.07-1.113a9.714 9.714 0 00-.205-1.087h-3.74a14.001 14.001 0 01.165 2.2 14.3 14.3 0 01-.165 2.2zm-.44-6.6h3.245a9.134 9.134 0 00-1.993-2.393 7.907 7.907 0 00-2.737-1.512c.33.605.619 1.233.867 1.884.248.652.454 1.325.618 2.021zm-6.435 0h4.18a13.023 13.023 0 00-.852-2.282A13.96 13.96 0 0011 2.254a13.96 13.96 0 00-1.238 2.063A13.02 13.02 0 008.91 6.6zm-5.5 0h3.245c.165-.697.371-1.37.62-2.022.247-.651.536-1.279.865-1.883a7.92 7.92 0 00-2.737 1.512A9.105 9.105 0 003.41 6.6z"/></svg></svg>