<svg width="17" height="17" viewBox="0 0 17 17" fill="none" xmlns="http://www.w3.org/2000/svg">
<path d="M8.91693 16.2649C4.52755 16.2601 0.970458 12.703 0.965637 8.31361V8.15458C1.05305 3.78498 4.65073 0.305035 9.02083 0.363019C13.3909 0.421003 16.895 3.99517 16.8665 8.36556C16.8379 12.7359 13.2874 16.264 8.91693 16.2649ZM8.91693 1.95258C5.40383 1.95258 2.5559 4.80051 2.5559 8.31361C2.5559 11.8267 5.40383 14.6746 8.91693 14.6746C12.43 14.6746 15.278 11.8267 15.278 8.31361C15.274 4.80214 12.4284 1.95652 8.91693 1.95258ZM7.76399 12.2893L6.63968 11.1641L9.45046 8.35337L6.63968 5.54258L7.76399 4.41748L11.6999 8.35337L7.76478 12.2893H7.76399Z" fill="#79B285"/>
</svg>
