<svg width="22" height="29" viewBox="0 0 22 29" fill="none" xmlns="http://www.w3.org/2000/svg">
<path d="M11.0018 28.2786C12.597 28.2786 13.9022 26.9734 13.9022 25.3782H8.10143C8.10143 26.1474 8.40701 26.8852 8.95093 27.4291C9.49486 27.973 10.2326 28.2786 11.0018 28.2786ZM19.7029 19.5775V12.3266C19.7029 7.8745 17.3246 4.14753 13.1771 3.1614V2.17528C13.1771 0.971623 12.2055 0 11.0018 0C9.79815 0 8.82653 0.971623 8.82653 2.17528V3.1614C4.6645 4.14753 2.3007 7.86 2.3007 12.3266V19.5775L0.429962 21.4482C-0.483654 22.3618 0.154427 23.928 1.44509 23.928H20.544C21.8347 23.928 22.4873 22.3618 21.5736 21.4482L19.7029 19.5775Z" fill="#101010"/>
</svg>
