<svg width="20" height="22" viewBox="0 0 20 22" fill="none" xmlns="http://www.w3.org/2000/svg">
<path fill-rule="evenodd" clip-rule="evenodd" d="M1.2892 1.2892C-1.3113e-07 2.5773 0 4.6519 0 8.8V13.2C0 17.3481 -1.3113e-07 19.4227 1.2892 20.7108C2.5773 22 4.6519 22 8.8 22H11C15.1481 22 17.2227 22 18.5108 20.7108C19.8 19.4227 19.8 17.3481 19.8 13.2V8.8C19.8 4.6519 19.8 2.5773 18.5108 1.2892C17.2227 -1.3113e-07 15.1481 0 11 0H8.8C4.6519 0 2.5773 -1.3113e-07 1.2892 1.2892ZM5.5 7.975C5.2812 7.975 5.07135 8.06192 4.91664 8.21664C4.76192 8.37136 4.675 8.5812 4.675 8.8C4.675 9.0188 4.76192 9.22865 4.91664 9.38336C5.07135 9.53808 5.2812 9.625 5.5 9.625H14.3C14.5188 9.625 14.7286 9.53808 14.8834 9.38336C15.0381 9.22865 15.125 9.0188 15.125 8.8C15.125 8.5812 15.0381 8.37136 14.8834 8.21664C14.7286 8.06192 14.5188 7.975 14.3 7.975H5.5ZM5.5 12.375C5.2812 12.375 5.07135 12.4619 4.91664 12.6166C4.76192 12.7714 4.675 12.9812 4.675 13.2C4.675 13.4188 4.76192 13.6286 4.91664 13.7834C5.07135 13.9381 5.2812 14.025 5.5 14.025H11C11.2188 14.025 11.4286 13.9381 11.5834 13.7834C11.7381 13.6286 11.825 13.4188 11.825 13.2C11.825 12.9812 11.7381 12.7714 11.5834 12.6166C11.4286 12.4619 11.2188 12.375 11 12.375H5.5Z" fill="#79B285"/>
</svg>
