<svg width="24" height="20" viewBox="0 0 24 20" fill="none" xmlns="http://www.w3.org/2000/svg">
<path d="M20.1667 0.666656H3.83337C2.90512 0.666656 2.01488 1.03541 1.3585 1.69178C0.702123 2.34816 0.333374 3.2384 0.333374 4.16666V15.8333C0.333374 16.7616 0.702123 17.6518 1.3585 18.3082C2.01488 18.9646 2.90512 19.3333 3.83337 19.3333H20.1667C21.095 19.3333 21.9852 18.9646 22.6416 18.3082C23.298 17.6518 23.6667 16.7616 23.6667 15.8333V4.16666C23.6667 3.2384 23.298 2.34816 22.6416 1.69178C21.9852 1.03541 21.095 0.666656 20.1667 0.666656ZM20.1667 2.99999L12.5834 8.21499C12.406 8.31739 12.2048 8.37129 12 8.37129C11.7952 8.37129 11.5941 8.31739 11.4167 8.21499L3.83337 2.99999H20.1667Z" fill="white"/>
</svg>
