<svg width="22" height="17" viewBox="0 0 22 17" fill="none" xmlns="http://www.w3.org/2000/svg">
<path d="M21.7052 8.97696L14.3682 16.1929C13.7132 16.8372 12.5777 16.4077 12.5777 15.4627V11.3393H6.63821C6.0268 11.3393 5.59007 10.9098 5.59007 10.3085V6.18508C5.59007 5.62671 6.0268 5.15424 6.63821 5.15424H12.5777V1.03085C12.5777 0.128856 13.6695 -0.343616 14.3682 0.300664L21.7052 7.5166C22.0983 7.94612 22.0983 8.5904 21.7052 8.97696ZM8.38511 15.9781C8.38511 16.2788 8.12308 16.4936 7.86104 16.4936H4.19256C1.87792 16.4936 0 14.6466 0 12.3702V4.12339C0 1.84694 1.87792 0 4.19256 0H7.86104C8.12308 0 8.38511 0.257712 8.38511 0.515424V2.2335C8.38511 2.53417 8.12308 2.74893 7.86104 2.74893H4.19256C3.40645 2.74893 2.79504 3.39321 2.79504 4.12339V12.3702C2.79504 13.1433 3.40645 13.7446 4.19256 13.7446H7.86104C8.12308 13.7446 8.38511 14.0023 8.38511 14.2601V15.9781Z" fill="#101010"/>
</svg>
