<svg width="20" height="18" viewBox="0 0 20 18" fill="none" xmlns="http://www.w3.org/2000/svg">
<path fill-rule="evenodd" clip-rule="evenodd" d="M1.66659 0.666748C1.44557 0.666748 1.23361 0.754545 1.07733 0.910826C0.921049 1.06711 0.833252 1.27907 0.833252 1.50008V13.1667C0.833252 14.2951 1.58075 15.2484 2.60742 15.5601C2.76025 16.0642 3.06845 16.5072 3.48802 16.8258C3.90759 17.1444 4.41709 17.3224 4.94378 17.3342C5.47047 17.346 5.98743 17.1911 6.42088 16.8917C6.85433 16.5923 7.18211 16.1635 7.35742 15.6667H12.6416C12.8169 16.1635 13.1447 16.5923 13.5781 16.8917C14.0116 17.1911 14.5285 17.346 15.0552 17.3342C15.5819 17.3224 16.0914 17.1444 16.511 16.8258C16.9306 16.5072 17.2388 16.0642 17.3916 15.5601C17.9051 15.4044 18.3548 15.0876 18.6744 14.6566C18.9941 14.2257 19.1666 13.7033 19.1666 13.1667V9.83342C19.1666 9.28624 19.0588 8.74442 18.8494 8.2389C18.64 7.73338 18.3331 7.27405 17.9462 6.88714C17.5593 6.50023 17.1 6.19331 16.5944 5.98392C16.0889 5.77452 15.5471 5.66675 14.9999 5.66675H11.6666V1.50008C11.6666 1.27907 11.5788 1.06711 11.4225 0.910826C11.2662 0.754545 11.0543 0.666748 10.8333 0.666748H1.66659ZM12.6424 14.0001H11.6666V7.33342H14.9999C15.663 7.33342 16.2988 7.59681 16.7677 8.06565C17.2365 8.53449 17.4999 9.17037 17.4999 9.83342V13.1667C17.5 13.2762 17.4785 13.3846 17.4366 13.4857C17.3947 13.5868 17.3333 13.6786 17.2558 13.7559C17.0427 13.3096 16.7021 12.9365 16.277 12.6839C15.8519 12.4312 15.3613 12.3103 14.8675 12.3364C14.3736 12.3625 13.8986 12.5345 13.5026 12.8307C13.1065 13.1268 12.8072 13.5338 12.6424 14.0001ZM4.41075 14.2442C4.48762 14.1647 4.57958 14.1012 4.68125 14.0575C4.78292 14.0138 4.89227 13.9908 5.00292 13.9899C5.11357 13.9889 5.2233 14.01 5.32571 14.0519C5.42813 14.0938 5.52117 14.1557 5.59941 14.2339C5.67766 14.3122 5.73954 14.4052 5.78144 14.5076C5.82334 14.61 5.84442 14.7198 5.84346 14.8304C5.8425 14.9411 5.81951 15.0504 5.77584 15.1521C5.73216 15.2538 5.66868 15.3457 5.58909 15.4226C5.43192 15.5744 5.22142 15.6584 5.00292 15.6565C4.78442 15.6546 4.57541 15.5669 4.4209 15.4124C4.2664 15.2579 4.17876 15.0489 4.17686 14.8304C4.17496 14.6119 4.25895 14.4014 4.41075 14.2442ZM14.1666 14.8334C14.1666 14.6124 14.2544 14.4004 14.4107 14.2442C14.5669 14.0879 14.7789 14.0001 14.9999 14.0001C15.2209 14.0001 15.4329 14.0879 15.5892 14.2442C15.7455 14.4004 15.8333 14.6124 15.8333 14.8334C15.8333 15.0544 15.7455 15.2664 15.5892 15.4227C15.4329 15.579 15.2209 15.6667 14.9999 15.6667C14.7789 15.6667 14.5669 15.579 14.4107 15.4227C14.2544 15.2664 14.1666 15.0544 14.1666 14.8334Z" fill="#101010"/>
</svg>
