<svg width="22" height="22" viewBox="0 0 22 22" fill="none" xmlns="http://www.w3.org/2000/svg">
<path d="M11 22C9.49667 22 8.07583 21.7111 6.7375 21.1332C5.39917 20.5553 4.23023 19.767 3.2307 18.7682C2.2319 17.7694 1.44357 16.6008 0.865701 15.2625C0.287835 13.9242 -0.000731939 12.5033 1.39417e-06 11C1.39417e-06 9.47833 0.288935 8.05273 0.866801 6.7232C1.44467 5.39367 2.233 4.22987 3.2318 3.2318C4.2306 2.23227 5.3988 1.44393 6.7364 0.8668C8.074 0.289667 9.4952 0.000733333 11 0C12.5217 0 13.9473 0.288933 15.2768 0.8668C16.6063 1.44467 17.7701 2.233 18.7682 3.2318C19.7677 4.2306 20.5561 5.39477 21.1332 6.7243C21.7103 8.05383 21.9993 9.47907 22 11C22 12.5033 21.7111 13.9242 21.1332 15.2625C20.5553 16.6008 19.767 17.7698 18.7682 18.7693C17.7694 19.7681 16.6052 20.5564 15.2757 21.1343C13.9462 21.7122 12.5209 22.0007 11 22ZM11 19.745C11.4767 19.085 11.8892 18.3975 12.2375 17.6825C12.5858 16.9675 12.87 16.2067 13.09 15.4H8.91C9.13 16.2067 9.41417 16.9675 9.7625 17.6825C10.1108 18.3975 10.5233 19.085 11 19.745ZM8.14 19.305C7.81 18.7 7.52107 18.0719 7.2732 17.4207C7.02533 16.7695 6.81927 16.0959 6.655 15.4H3.41C3.94167 16.3167 4.60643 17.1142 5.4043 17.7925C6.20217 18.4708 7.11407 18.975 8.14 19.305ZM13.86 19.305C14.8867 18.975 15.7989 18.4708 16.5968 17.7925C17.3947 17.1142 18.0591 16.3167 18.59 15.4H15.345C15.18 16.0967 14.9739 16.7706 14.7268 17.4218C14.4797 18.073 14.1907 18.7007 13.86 19.305ZM2.475 13.2H6.215C6.16 12.8333 6.11857 12.4711 6.0907 12.1132C6.06283 11.7553 6.04927 11.3843 6.05 11C6.05 10.615 6.06393 10.2439 6.0918 9.8868C6.11967 9.52967 6.16073 9.1674 6.215 8.8H2.475C2.38333 9.16667 2.3144 9.52893 2.2682 9.8868C2.222 10.2447 2.19927 10.6157 2.2 11C2.2 11.385 2.2231 11.7561 2.2693 12.1132C2.3155 12.4703 2.38407 12.8326 2.475 13.2ZM8.415 13.2H13.585C13.64 12.8333 13.6814 12.4711 13.7093 12.1132C13.7372 11.7553 13.7507 11.3843 13.75 11C13.75 10.615 13.7361 10.2439 13.7082 9.8868C13.6803 9.52967 13.6393 9.1674 13.585 8.8H8.415C8.36 9.16667 8.31857 9.52893 8.2907 9.8868C8.26283 10.2447 8.24927 10.6157 8.25 11C8.25 11.385 8.26393 11.7561 8.2918 12.1132C8.31967 12.4703 8.36073 12.8326 8.415 13.2ZM15.785 13.2H19.525C19.6167 12.8333 19.6856 12.4711 19.7318 12.1132C19.778 11.7553 19.8007 11.3843 19.8 11C19.8 10.615 19.7769 10.2439 19.7307 9.8868C19.6845 9.52967 19.6159 9.1674 19.525 8.8H15.785C15.84 9.16667 15.8814 9.52893 15.9093 9.8868C15.9372 10.2447 15.9507 10.6157 15.95 11C15.95 11.385 15.9361 11.7561 15.9082 12.1132C15.8803 12.4703 15.8393 12.8326 15.785 13.2ZM15.345 6.6H18.59C18.0583 5.68333 17.3939 4.88583 16.5968 4.2075C15.7997 3.52917 14.8874 3.025 13.86 2.695C14.19 3.3 14.4789 3.9281 14.7268 4.5793C14.9747 5.2305 15.1807 5.90407 15.345 6.6ZM8.91 6.6H13.09C12.87 5.79333 12.5858 5.0325 12.2375 4.3175C11.8892 3.6025 11.4767 2.915 11 2.255C10.5233 2.915 10.1108 3.6025 9.7625 4.3175C9.41417 5.0325 9.13 5.79333 8.91 6.6ZM3.41 6.6H6.655C6.82 5.90333 7.02643 5.2294 7.2743 4.5782C7.52217 3.927 7.81073 3.29927 8.14 2.695C7.11333 3.025 6.20107 3.52917 5.4032 4.2075C4.60533 4.88583 3.94093 5.68333 3.41 6.6Z" fill="#101010"/>
</svg>
